# xmcd
# 
# Track frame offsets:
#     150
#     23957
#     44978
#     67327
#     92342
#     122434
#     144438
#     170687
#     185787
#     200269
#     222966
#     256114
#     282802
#     308223
#     326353
# 
# Disc length: 4753
# 
# Revision: 1
# Processed by: cddbd v1.5.2PL0 Copyright (c) Steve Scherf et al.
# Submitted via: fre:ac v1.0.27
# 
DISCID=e1128f0f
DTITLE=Ludovico Einaudi - Einaudi Essentiel
DYEAR=2012
DGENRE=Jazz
TTITLE0=Indaco
TTITLE1=Fly
TTITLE2=The Earth Prelude
TTITLE3=Le Onde
TTITLE4=Divenire
TTITLE5=Due Tramonti
TTITLE6=Nightbook
TTITLE7=Una Mattina
TTITLE8=L'Origine Nascosta
TTITLE9=High Heels
TTITLE10=Primavera
TTITLE11=Nuvole Bianche
TTITLE12=Lady Labyrinth - Remix
TTITLE13=Fairytale
TTITLE14=I Giorni
EXTD=YEAR: 2012
EXTT0=
EXTT1=
EXTT2=
EXTT3=
EXTT4=
EXTT5=
EXTT6=
EXTT7=
EXTT8=
EXTT9=
EXTT10=
EXTT11=
EXTT12=
EXTT13=
EXTT14=
PLAYORDER=
